<svg width="46" height="46" viewBox="0 0 46 46" fill="none" xmlns="http://www.w3.org/2000/svg">
<g id="graph 1">
<g id="Solid">
<path id="Vector" d="M4.30504 33.0049C4.58777 33.0053 4.86778 32.9498 5.12899 32.8416C5.3902 32.7334 5.62746 32.5747 5.82713 32.3745L17.9375 20.264L22.8729 25.1995C23.0728 25.3994 23.3101 25.558 23.5713 25.6661C23.8324 25.7743 24.1124 25.83 24.395 25.83C24.6777 25.83 24.9576 25.7743 25.2188 25.6661C25.4799 25.558 25.7172 25.3994 25.9171 25.1995L39.4617 11.6549L39.4609 16.5024C39.4609 17.0733 39.6877 17.6208 40.0914 18.0245C40.495 18.4281 41.0425 18.6549 41.6134 18.6549C42.1843 18.6549 42.7318 18.4281 43.1355 18.0245C43.5391 17.6208 43.7659 17.0733 43.7659 16.5024L43.7675 6.45743C43.7675 5.88655 43.5407 5.33906 43.1371 4.93538C42.7334 4.53171 42.1859 4.30493 41.615 4.30493H31.57C30.9991 4.30493 30.4517 4.53171 30.048 4.93538C29.6443 5.33906 29.4175 5.88655 29.4175 6.45743C29.4175 7.02831 29.6443 7.57581 30.048 7.97948C30.4517 8.38315 30.9991 8.60993 31.57 8.60993H36.4184L24.395 20.6333L19.4596 15.6978C19.2597 15.4979 19.0224 15.3394 18.7613 15.2312C18.5001 15.123 18.2202 15.0673 17.9375 15.0673C17.6549 15.0673 17.3749 15.123 17.1138 15.2312C16.8526 15.3394 16.6153 15.4979 16.4154 15.6978L2.78296 29.3303C2.48191 29.6314 2.27689 30.0149 2.19383 30.4325C2.11077 30.85 2.1534 31.2828 2.31632 31.6761C2.47924 32.0695 2.75515 32.4057 3.10914 32.6422C3.46313 32.8787 3.87931 33.0049 4.30504 33.0049Z" fill="white"/>
<path id="Vector_2" d="M41.6151 37.3098H4.30509C3.73421 37.3098 3.18671 37.5366 2.78304 37.9403C2.37937 38.3439 2.15259 38.8914 2.15259 39.4623C2.15259 40.0332 2.37937 40.5807 2.78304 40.9844C3.18671 41.388 3.73421 41.6148 4.30509 41.6148H41.6151C42.1859 41.6148 42.7334 41.388 43.1371 40.9844C43.5408 40.5807 43.7676 40.0332 43.7676 39.4623C43.7676 38.8914 43.5408 38.3439 43.1371 37.9403C42.7334 37.5366 42.1859 37.3098 41.6151 37.3098Z" fill="white"/>
</g>
</g>
</svg>
