<svg width="117" height="23" viewBox="0 0 117 23" fill="none" xmlns="http://www.w3.org/2000/svg">
<g id="Group 7">
<path id="Star 1" d="M11.8299 0.547729L15.1023 7.13253L22.4197 8.18846L17.1248 13.314L18.3748 20.5514L11.8299 17.1344L5.28501 20.5514L6.53497 13.314L1.24005 8.18846L8.55745 7.13253L11.8299 0.547729Z" fill="#FFCD1A"/>
<path id="Star 2" d="M35.2715 0.547729L38.544 7.13253L45.8614 8.18846L40.5665 13.314L41.8164 20.5514L35.2715 17.1344L28.7267 20.5514L29.9766 13.314L24.6817 8.18846L31.9991 7.13253L35.2715 0.547729Z" fill="#FFCD1A"/>
<path id="Star 3" d="M58.7132 0.547729L61.9856 7.13253L69.303 8.18846L64.0081 13.314L65.2581 20.5514L58.7132 17.1344L52.1683 20.5514L53.4183 13.314L48.1233 8.18846L55.4408 7.13253L58.7132 0.547729Z" fill="#FFCD1A"/>
<path id="Star 4" d="M82.1548 0.547729L85.4273 7.13253L92.7447 8.18846L87.4498 13.314L88.6997 20.5514L82.1548 17.1344L75.61 20.5514L76.8599 13.314L71.565 8.18846L78.8824 7.13253L82.1548 0.547729Z" fill="#FFCD1A"/>
<path id="Star 5" d="M105.597 0.547729L108.869 7.13253L116.187 8.18846L110.892 13.314L112.142 20.5514L105.597 17.1344L99.0519 20.5514L100.302 13.314L95.0069 8.18846L102.324 7.13253L105.597 0.547729Z" fill="#CCCCCC"/>
</g>
</svg>
